<svg fill="#000000" height="32" viewBox="0 0 24 24" width="32" xmlns="http://www.w3.org/2000/svg" xmlns:xlink="http://www.w3.org/1999/xlink">
    <defs>
        <path d="M0 0h24v24H0z" id="a"/>
    </defs>
    <clipPath id="b">
        <use overflow="visible" xlink:href="#a"/>
    </clipPath>
    <path clip-path="url(#b)" d="M3 16h5v-2H3v2zm6.5 0h5v-2h-5v2zm6.5 0h5v-2h-5v2zM3 20h2v-2H3v2zm4 0h2v-2H7v2zm4 0h2v-2h-2v2zm4 0h2v-2h-2v2zm4 0h2v-2h-2v2zM3 12h8v-2H3v2zm10 0h8v-2h-8v2zM3 4v4h18V4H3z"/>
</svg>