<svg xmlns="http://www.w3.org/2000/svg" height="32" width="32" xmlns:xlink="http://www.w3.org/1999/xlink" version="1.1" x="0px" y="0px" viewBox="0 0 100 125" enable-background="new 0 0 100 100" xml:space="preserve">
  <path fill="#10174C" d="M50,95.078c-24.853,0-45-20.147-45-45s20.147-45,45-45V95.078z"/><g><defs><path id="b" d="M50,95.078c24.853,0,45-20.147,45-45s-20.147-45-45-45V95.078z"/></defs><clipPath id="a"><use xlink:href="#b" overflow="visible"/></clipPath><rect x="50" y="32.109" clip-path="url(#a)" fill="#000000" width="9" height="9"/><rect x="50" y="14.109" clip-path="url(#a)" fill="#000000" width="9" height="9"/><path clip-path="url(#a)" fill="#000000" d="M67.659,5.078h-8.319C59.152,5.078,59,5.231,59,5.419v8.319   c0,0.188,0.152,0.341,0.341,0.341h8.319c0.188,0,0.341-0.152,0.341-0.341V5.419C68,5.231,67.848,5.078,67.659,5.078z"/><path clip-path="url(#a)" fill="#000000" d="M67.659,23.109h-8.319c-0.188,0-0.341,0.152-0.341,0.341v8.319   c0,0.188,0.152,0.341,0.341,0.341h8.319c0.188,0,0.341-0.152,0.341-0.341v-8.319C68,23.261,67.848,23.109,67.659,23.109z"/><rect x="50" y="68.139" clip-path="url(#a)" fill="#000000" width="9" height="9"/><rect x="50" y="50.139" clip-path="url(#a)" fill="#000000" width="9" height="9"/><path clip-path="url(#a)" fill="#000000" d="M67.659,41.109h-8.319c-0.188,0-0.341,0.152-0.341,0.341v8.319   c0,0.188,0.152,0.341,0.341,0.341h8.319c0.188,0,0.341-0.152,0.341-0.341v-8.319C68,41.261,67.848,41.109,67.659,41.109z"/><path clip-path="url(#a)" fill="#000000" d="M67.659,59.139h-8.319c-0.188,0-0.341,0.152-0.341,0.341v8.319   c0,0.188,0.152,0.341,0.341,0.341h8.319c0.188,0,0.341-0.152,0.341-0.341V59.48C68,59.291,67.848,59.139,67.659,59.139z"/><rect x="50" y="86.139" clip-path="url(#a)" fill="#000000" width="9" height="9"/><path clip-path="url(#a)" fill="#000000" d="M67.659,77.139h-8.319c-0.188,0-0.341,0.152-0.341,0.341v8.319   c0,0.188,0.152,0.341,0.341,0.341h8.319c0.188,0,0.341-0.152,0.341-0.341V77.48C68,77.291,67.848,77.139,67.659,77.139z"/><path clip-path="url(#a)" fill="#000000" d="M76.434,32.109h-7.867c-0.313,0-0.566,0.254-0.566,0.566v7.867   c0,0.313,0.254,0.566,0.566,0.566h7.867c0.313,0,0.566-0.254,0.566-0.566v-7.867C77,32.362,76.746,32.109,76.434,32.109z"/><path clip-path="url(#a)" fill="#000000" d="M76.434,14.109h-7.867c-0.313,0-0.566,0.254-0.566,0.566v7.867   c0,0.313,0.254,0.566,0.566,0.566h7.867c0.313,0,0.566-0.254,0.566-0.566v-7.867C77,14.362,76.746,14.109,76.434,14.109z"/><path clip-path="url(#a)" fill="#000000" d="M85.212,23.109h-7.424c-0.435,0-0.788,0.353-0.788,0.788v7.424   c0,0.435,0.353,0.788,0.788,0.788h7.424c0.435,0,0.788-0.353,0.788-0.788v-7.424C86,23.461,85.647,23.109,85.212,23.109z"/><path clip-path="url(#a)" fill="#000000" d="M94,32.109h-7c-0.552,0-1,0.448-1,1v7c0,0.552,0.448,1,1,1h7   c0.552,0,1-0.448,1-1v-7C95,32.556,94.552,32.109,94,32.109z"/><rect x="86" y="14.109" clip-path="url(#a)" fill="#000000" width="9" height="9"/><rect x="77" y="5.078" clip-path="url(#a)" fill="#000000" width="9" height="9"/><path clip-path="url(#a)" fill="#000000" d="M76.434,68.139h-7.867c-0.313,0-0.566,0.254-0.566,0.566v7.867   c0,0.313,0.254,0.566,0.566,0.566h7.867c0.313,0,0.566-0.254,0.566-0.566v-7.867C77,68.393,76.746,68.139,76.434,68.139z"/><path clip-path="url(#a)" fill="#000000" d="M76.434,50.139h-7.867c-0.313,0-0.566,0.254-0.566,0.566v7.867   c0,0.313,0.254,0.566,0.566,0.566h7.867c0.313,0,0.566-0.254,0.566-0.566v-7.867C77,50.393,76.746,50.139,76.434,50.139z"/><path clip-path="url(#a)" fill="#000000" d="M85.212,41.109h-7.424c-0.435,0-0.788,0.353-0.788,0.788v7.424   c0,0.435,0.353,0.788,0.788,0.788h7.424c0.435,0,0.788-0.353,0.788-0.788v-7.424C86,41.461,85.647,41.109,85.212,41.109z"/><path clip-path="url(#a)" fill="#000000" d="M85.212,59.139h-7.424c-0.435,0-0.788,0.353-0.788,0.788v7.424   c0,0.435,0.353,0.788,0.788,0.788h7.424c0.435,0,0.788-0.353,0.788-0.788v-7.424C86,59.492,85.647,59.139,85.212,59.139z"/><path clip-path="url(#a)" fill="#000000" d="M76.434,86.078h-7.867c-0.313,0-0.566,0.254-0.566,0.566v7.867   c0,0.313,0.254,0.566,0.566,0.566h7.867c0.313,0,0.566-0.254,0.566-0.566v-7.867C77,86.332,76.746,86.078,76.434,86.078z"/><path clip-path="url(#a)" fill="#000000" d="M85.212,77.078h-7.424c-0.435,0-0.788,0.353-0.788,0.788v7.424   c0,0.435,0.353,0.788,0.788,0.788h7.424c0.435,0,0.788-0.353,0.788-0.788v-7.424C86,77.431,85.647,77.078,85.212,77.078z"/><rect x="86" y="14.109" clip-path="url(#a)" fill="#000000" width="9" height="9"/><path clip-path="url(#a)" fill="#000000" d="M94,68.078h-7c-0.552,0-1,0.448-1,1v7c0,0.552,0.448,1,1,1h7   c0.552,0,1-0.448,1-1v-7C95,68.526,94.552,68.078,94,68.078z"/><path clip-path="url(#a)" fill="#000000" d="M94,50.078h-7c-0.552,0-1,0.448-1,1v7c0,0.552,0.448,1,1,1h7   c0.552,0,1-0.448,1-1v-7C95,50.526,94.552,50.078,94,50.078z"/>
  <rect x="86" y="86.139" clip-path="url(#a)" fill="#000000" width="9" height="9"/></g></svg>
