
<svg width="210px" height="48px" viewBox="0 0 210 48" version="1.1" xmlns="http://www.w3.org/2000/svg" xmlns:xlink="http://www.w3.org/1999/xlink">
    <!-- Generator: Sketch 48.2 (47327) - http://www.bohemiancoding.com/sketch -->
    <desc>Created with Sketch.</desc>
    <defs></defs>
    <g id="Page-1" stroke="none" stroke-width="1" fill="none" fill-rule="evenodd">
        <g id="wordmark">
            <g id="lines" opacity="0.4" stroke-linecap="round" stroke-dasharray="6" transform="translate(0.000000, 2.000000)" stroke="#FFFFFF">
                <path d="M0,44.5 L211,44.5" id="Line"></path>
                <path d="M0,22.5 L211,22.5" id="Line-Copy"></path>
                <path d="M0,0.5 L211,0.5" id="Line-Copy-2"></path>
            </g>
            <g id="ID" transform="translate(29.000000, 0.000000)">
                <path d="M18.216,18.2499756 C18.216,19.525982 17.9630025,20.5984712 17.457,21.4674756 C16.9509975,22.3364799 16.2800042,23.0349729 15.444,23.5629756 C14.6079958,24.0909782 13.6565053,24.4704744 12.5895,24.7014756 C11.5224947,24.9324767 10.4280056,25.0479756 9.306,25.0479756 L0,25.0479756 L0,1.68397559 L9.306,1.68397559 C10.2080045,1.68397559 11.1319953,1.77747465 12.078,1.96447559 C13.0240047,2.15147652 13.8819961,2.47047333 14.652,2.92147559 C15.4220038,3.37247784 16.0489976,3.98297174 16.533,4.75297559 C17.0170024,5.52297944 17.259,6.50196965 17.259,7.68997559 C17.259,8.98798208 16.9070035,10.0604714 16.203,10.9074756 C15.4989965,11.7544798 14.5750057,12.3649737 13.431,12.7389756 L13.431,12.8049756 C14.0910033,12.9149761 14.7124971,13.1184741 15.2955,13.4154756 C15.8785029,13.7124771 16.3844979,14.0919733 16.8135,14.5539756 C17.2425021,15.0159779 17.5834987,15.5549725 17.8365,16.1709756 C18.0895013,16.7869787 18.216,17.4799717 18.216,18.2499756 Z M11.814,8.44897559 C11.814,7.65697163 11.511503,7.0794774 10.9065,6.71647559 C10.301497,6.35347377 9.40500594,6.17197559 8.217,6.17197559 L5.445,6.17197559 L5.445,10.9899756 L8.481,10.9899756 C9.53700528,10.9899756 10.3564971,10.7754777 10.9395,10.3464756 C11.5225029,9.91747344 11.814,9.28497977 11.814,8.44897559 Z M12.573,17.7219756 C12.573,16.7539707 12.2100036,16.0829775 11.484,15.7089756 C10.7579964,15.3349737 9.79000605,15.1479756 8.58,15.1479756 L5.445,15.1479756 L5.445,20.4939756 L8.613,20.4939756 C9.0530022,20.4939756 9.50949764,20.455476 9.9825,20.3784756 C10.4555024,20.3014752 10.8844981,20.1639766 11.2695,19.9659756 C11.6545019,19.7679746 11.9679988,19.4874774 12.21,19.1244756 C12.4520012,18.7614738 12.573,18.2939784 12.573,17.7219756 Z M31.35,17.8869756 L30.657,17.8869756 C30.062997,17.8869756 29.463503,17.9144753 28.8585,17.9694756 C28.253497,18.0244759 27.7145024,18.1289748 27.2415,18.2829756 C26.7684976,18.4369764 26.3780015,18.6624741 26.07,18.9594756 C25.7619985,19.2564771 25.608,19.6469732 25.608,20.1309756 C25.608,20.4389771 25.6794993,20.7029745 25.8225,20.9229756 C25.9655007,21.1429767 26.1469989,21.3189749 26.367,21.4509756 C26.5870011,21.5829762 26.8399986,21.6764753 27.126,21.7314756 C27.4120014,21.7864759 27.6869987,21.8139756 27.951,21.8139756 C29.0510055,21.8139756 29.8924971,21.5114786 30.4755,20.9064756 C31.0585029,20.3014726 31.35,19.4819808 31.35,18.4479756 L31.35,17.8869756 Z M21.417,10.8579756 C22.3850048,9.93397097 23.5124936,9.2409779 24.7995,8.77897559 C26.0865064,8.31697328 27.4009933,8.08597559 28.743,8.08597559 C30.1290069,8.08597559 31.3004952,8.25647388 32.2575,8.59747559 C33.2145048,8.93847729 33.989997,9.46647201 34.584,10.1814756 C35.178003,10.8964792 35.6124986,11.7984701 35.8875,12.8874756 C36.1625014,13.976481 36.3,15.2689681 36.3,16.7649756 L36.3,25.0479756 L31.35,25.0479756 L31.35,23.2989756 L31.251,23.2989756 C30.8329979,23.980979 30.2005042,24.5089737 29.3535,24.8829756 C28.5064958,25.2569775 27.5880049,25.4439756 26.598,25.4439756 C25.9379967,25.4439756 25.2560035,25.3559765 24.552,25.1799756 C23.8479965,25.0039747 23.2045029,24.7179776 22.6215,24.3219756 C22.0384971,23.9259736 21.5600019,23.3979789 21.186,22.7379756 C20.8119981,22.0779723 20.625,21.2639804 20.625,20.2959756 C20.625,19.1079696 20.9494968,18.1509792 21.5985,17.4249756 C22.2475032,16.698972 23.0834949,16.1379776 24.1065,15.7419756 C25.1295051,15.3459736 26.2679937,15.0819762 27.522,14.9499756 C28.7760063,14.8179749 29.9969941,14.7519756 31.185,14.7519756 L31.185,14.4879756 C31.185,13.6739715 30.8990029,13.0744775 30.327,12.6894756 C29.7549971,12.3044737 29.0510042,12.1119756 28.215,12.1119756 C27.4449961,12.1119756 26.7025036,12.2769739 25.9875,12.6069756 C25.2724964,12.9369772 24.6620025,13.3329733 24.156,13.7949756 L21.417,10.8579756 Z M49.995,13.4649756 C49.5549978,13.0469735 49.038003,12.694977 48.444,12.4089756 C47.849997,12.1229742 47.2230033,11.9799756 46.563,11.9799756 C46.0569975,11.9799756 45.5895021,12.0789746 45.1605,12.2769756 C44.7314979,12.4749766 44.517,12.8159732 44.517,13.2999756 C44.517,13.7619779 44.7534976,14.0919746 45.2265,14.2899756 C45.6995024,14.4879766 46.4639947,14.7079744 47.52,14.9499756 C48.1360031,15.0819762 48.7574969,15.2689744 49.3845,15.5109756 C50.0115031,15.7529768 50.5779975,16.0719736 51.084,16.4679756 C51.5900025,16.8639776 51.9969985,17.3479727 52.305,17.9199756 C52.6130015,18.4919784 52.767,19.1739716 52.767,19.9659756 C52.767,20.9999808 52.5580021,21.874472 52.14,22.5894756 C51.7219979,23.3044792 51.1775034,23.8819734 50.5065,24.3219756 C49.8354966,24.7619778 49.0820042,25.0809746 48.246,25.2789756 C47.4099958,25.4769766 46.5740042,25.5759756 45.738,25.5759756 C44.3959933,25.5759756 43.0815064,25.3614777 41.7945,24.9324756 C40.5074936,24.5034734 39.4350043,23.8709798 38.577,23.0349756 L41.613,19.8339756 C42.0970024,20.3619782 42.6909965,20.8019738 43.395,21.1539756 C44.0990035,21.5059773 44.846996,21.6819756 45.639,21.6819756 C46.0790022,21.6819756 46.5134979,21.5774766 46.9425,21.3684756 C47.3715021,21.1594745 47.586,20.7909782 47.586,20.2629756 C47.586,19.7569731 47.3220026,19.3829768 46.794,19.1409756 C46.2659974,18.8989744 45.4410056,18.6459769 44.319,18.3819756 C43.7469971,18.2499749 43.1750029,18.0739767 42.603,17.8539756 C42.0309971,17.6339745 41.5195023,17.3369775 41.0685,16.9629756 C40.6174977,16.5889737 40.2490014,16.1269783 39.963,15.5769756 C39.6769986,15.0269728 39.534,14.3669794 39.534,13.5969756 C39.534,12.6069706 39.7429979,11.7654791 40.161,11.0724756 C40.5790021,10.3794721 41.1179967,9.81297779 41.778,9.37297559 C42.4380033,8.93297339 43.169496,8.60847663 43.9725,8.39947559 C44.775504,8.19047454 45.572996,8.08597559 46.365,8.08597559 C47.5970062,8.08597559 48.8014941,8.27847366 49.9785,8.66347559 C51.1555059,9.04847751 52.1509959,9.62597174 52.965,10.3959756 L49.995,13.4649756 Z M67.221,14.9499756 C67.221,14.0919713 66.9515027,13.3549787 66.4125,12.7389756 C65.8734973,12.1229725 65.0650054,11.8149756 63.987,11.8149756 C63.4589974,11.8149756 62.9750022,11.8974748 62.535,12.0624756 C62.0949978,12.2274764 61.7100016,12.4529742 61.38,12.7389756 C61.0499983,13.024977 60.786001,13.3604737 60.588,13.7454756 C60.389999,14.1304775 60.2800001,14.5319735 60.258,14.9499756 L67.221,14.9499756 Z M72.204,17.0289756 L72.204,17.6889756 C72.204,17.9089767 72.1930001,18.1179746 72.171,18.3159756 L60.258,18.3159756 C60.3020002,18.7779779 60.4394988,19.1959737 60.6705,19.5699756 C60.9015012,19.9439775 61.1984982,20.2684742 61.5615,20.5434756 C61.9245018,20.818477 62.3314977,21.0329748 62.7825,21.1869756 C63.2335023,21.3409764 63.7009976,21.4179756 64.185,21.4179756 C65.0430043,21.4179756 65.768997,21.2584772 66.363,20.9394756 C66.957003,20.620474 67.4409981,20.2079781 67.815,19.7019756 L71.577,22.0779756 C70.8069962,23.1999812 69.7895063,24.0634726 68.5245,24.6684756 C67.2594937,25.2734786 65.7910084,25.5759756 64.119,25.5759756 C62.8869938,25.5759756 61.7210055,25.3834775 60.621,24.9984756 C59.5209945,24.6134737 58.5585041,24.0524793 57.7335,23.3154756 C56.9084959,22.5784719 56.2595024,21.670981 55.7865,20.5929756 C55.3134976,19.5149702 55.077,18.2829825 55.077,16.8969756 C55.077,15.5549689 55.3079977,14.339481 55.77,13.2504756 C56.2320023,12.1614701 56.858996,11.2374794 57.651,10.4784756 C58.443004,9.71947179 59.3779946,9.13097768 60.456,8.71297559 C61.5340054,8.2949735 62.6999937,8.08597559 63.954,8.08597559 C65.164006,8.08597559 66.2749949,8.28947355 67.287,8.69647559 C68.2990051,9.10347762 69.1679964,9.69197174 69.894,10.4619756 C70.6200036,11.2319794 71.186498,12.1669701 71.5935,13.2669756 C72.000502,14.3669811 72.204,15.6209685 72.204,17.0289756 Z M75.636,25.0479756 L75.636,0.0999755859 L81.114,0.0999755859 L81.114,25.0479756 L75.636,25.0479756 Z M91.278,3.36697559 C91.278,3.78497768 91.1955008,4.17547377 91.0305,4.53847559 C90.8654992,4.9014774 90.6455014,5.21497427 90.3705,5.47897559 C90.0954986,5.74297691 89.7655019,5.95197482 89.3805,6.10597559 C88.9954981,6.25997636 88.5940021,6.33697559 88.176,6.33697559 C87.2959956,6.33697559 86.559003,6.0454785 85.965,5.46247559 C85.370997,4.87947267 85.074,4.18097966 85.074,3.36697559 C85.074,2.97097361 85.1509992,2.5914774 85.305,2.22847559 C85.4590008,1.86547377 85.6789986,1.55197691 85.965,1.28797559 C86.2510014,1.02397427 86.5809981,0.809476411 86.955,0.644475586 C87.3290019,0.479474761 87.7359978,0.396975586 88.176,0.396975586 C88.5940021,0.396975586 88.9954981,0.473974816 89.3805,0.627975586 C89.7655019,0.781976356 90.0954986,0.990974266 90.3705,1.25497559 C90.6455014,1.51897691 90.8654992,1.83247377 91.0305,2.19547559 C91.1955008,2.5584774 91.278,2.9489735 91.278,3.36697559 Z M85.47,25.0479756 L85.47,8.61397559 L90.882,8.61397559 L90.882,25.0479756 L85.47,25.0479756 Z M105.963,25.0479756 L105.963,16.0719756 C105.963,15.6099733 105.9245,15.1699777 105.8475,14.7519756 C105.7705,14.3339735 105.644001,13.9654772 105.468,13.6464756 C105.291999,13.327474 105.044502,13.0744765 104.7255,12.8874756 C104.406498,12.7004747 104.005002,12.6069756 103.521,12.6069756 C103.036998,12.6069756 102.613502,12.7004747 102.2505,12.8874756 C101.887498,13.0744765 101.585001,13.3329739 101.343,13.6629756 C101.100999,13.9929772 100.919501,14.3724734 100.7985,14.8014756 C100.677499,15.2304777 100.617,15.6759733 100.617,16.1379756 L100.617,25.0479756 L95.172,25.0479756 L95.172,8.61397559 L100.419,8.61397559 L100.419,10.8909756 L100.485,10.8909756 C100.683001,10.5389738 100.941498,10.1924773 101.2605,9.85147559 C101.579502,9.51047388 101.953498,9.2189768 102.3825,8.97697559 C102.811502,8.73497438 103.278997,8.53697636 103.785,8.38297559 C104.291003,8.22897482 104.829997,8.15197559 105.402,8.15197559 C106.502006,8.15197559 107.436996,8.34997361 108.207,8.74597559 C108.977004,9.14197757 109.598498,9.65347245 110.0715,10.2804756 C110.544502,10.9074787 110.885499,11.6279715 111.0945,12.4419756 C111.303501,13.2559797 111.408,14.0699715 111.408,14.8839756 L111.408,25.0479756 L105.963,25.0479756 Z M126.819,14.9499756 C126.819,14.0919713 126.549503,13.3549787 126.0105,12.7389756 C125.471497,12.1229725 124.663005,11.8149756 123.585,11.8149756 C123.056997,11.8149756 122.573002,11.8974748 122.133,12.0624756 C121.692998,12.2274764 121.308002,12.4529742 120.978,12.7389756 C120.647998,13.024977 120.384001,13.3604737 120.186,13.7454756 C119.987999,14.1304775 119.878,14.5319735 119.856,14.9499756 L126.819,14.9499756 Z M131.802,17.0289756 L131.802,17.6889756 C131.802,17.9089767 131.791,18.1179746 131.769,18.3159756 L119.856,18.3159756 C119.9,18.7779779 120.037499,19.1959737 120.2685,19.5699756 C120.499501,19.9439775 120.796498,20.2684742 121.1595,20.5434756 C121.522502,20.818477 121.929498,21.0329748 122.3805,21.1869756 C122.831502,21.3409764 123.298998,21.4179756 123.783,21.4179756 C124.641004,21.4179756 125.366997,21.2584772 125.961,20.9394756 C126.555003,20.620474 127.038998,20.2079781 127.413,19.7019756 L131.175,22.0779756 C130.404996,23.1999812 129.387506,24.0634726 128.1225,24.6684756 C126.857494,25.2734786 125.389008,25.5759756 123.717,25.5759756 C122.484994,25.5759756 121.319005,25.3834775 120.219,24.9984756 C119.118995,24.6134737 118.156504,24.0524793 117.3315,23.3154756 C116.506496,22.5784719 115.857502,21.670981 115.3845,20.5929756 C114.911498,19.5149702 114.675,18.2829825 114.675,16.8969756 C114.675,15.5549689 114.905998,14.339481 115.368,13.2504756 C115.830002,12.1614701 116.456996,11.2374794 117.249,10.4784756 C118.041004,9.71947179 118.975995,9.13097768 120.054,8.71297559 C121.132005,8.2949735 122.297994,8.08597559 123.552,8.08597559 C124.762006,8.08597559 125.872995,8.28947355 126.885,8.69647559 C127.897005,9.10347762 128.765996,9.69197174 129.492,10.4619756 C130.218004,11.2319794 130.784498,12.1669701 131.1915,13.2669756 C131.598502,14.3669811 131.802,15.6209685 131.802,17.0289756 Z M145.827,13.0359756 C145.584999,12.9699753 145.348501,12.9259757 145.1175,12.9039756 C144.886499,12.8819755 144.661001,12.8709756 144.441,12.8709756 C143.714996,12.8709756 143.104502,13.0029743 142.6095,13.2669756 C142.114498,13.5309769 141.718501,13.8499737 141.4215,14.2239756 C141.124499,14.5979775 140.910001,15.0049734 140.778,15.4449756 C140.645999,15.8849778 140.58,16.2699739 140.58,16.5999756 L140.58,25.0479756 L135.168,25.0479756 L135.168,8.61397559 L140.382,8.61397559 L140.382,10.9899756 L140.448,10.9899756 C140.866002,10.1539714 141.459996,9.47197823 142.23,8.94397559 C143.000004,8.41597295 143.890995,8.15197559 144.903,8.15197559 C145.123001,8.15197559 145.337499,8.16297548 145.5465,8.18497559 C145.755501,8.2069757 145.925999,8.23997537 146.058,8.28397559 L145.827,13.0359756 Z" id="Baseliner" fill="#FFFFFF" fill-rule="nonzero"></path>
                <path d="M1.66463415,40.0243902 L0,40.0243902 L0,38.2682927 L1.66463415,38.2682927 L1.66463415,36.9695122 C1.66463415,36.4451193 1.7225604,35.9420756 1.83841463,35.4603659 C1.95426887,34.9786561 2.14938887,34.5548799 2.42378049,34.1890244 C2.6981721,33.8231689 3.06097335,33.5335377 3.51219512,33.320122 C3.96341689,33.1067063 4.53048439,33 5.21341463,33 C5.45731829,33 5.66158454,33.0091462 5.82621951,33.027439 C5.99085448,33.0457318 6.15853573,33.079268 6.32926829,33.1280488 L6.18292683,34.9939024 C6.060975,34.9573169 5.92987875,34.9268294 5.78963415,34.902439 C5.64938954,34.8780487 5.50000079,34.8658537 5.34146341,34.8658537 C5.02438866,34.8658537 4.76829366,34.9268287 4.57317073,35.0487805 C4.3780478,35.1707323 4.22865905,35.3292673 4.125,35.5243902 C4.02134095,35.7195132 3.9512197,35.9329257 3.91463415,36.1646341 C3.8780486,36.3963426 3.8597561,36.6219501 3.8597561,36.8414634 L3.8597561,38.2682927 L5.8902439,38.2682927 L5.8902439,40.0243902 L3.8597561,40.0243902 L3.8597561,47.0487805 L1.66463415,47.0487805 L1.66463415,40.0243902 Z M6.73170732,42.6219512 C6.73170732,41.9268258 6.85670607,41.2957345 7.10670732,40.7286585 C7.35670857,40.1615825 7.69511982,39.6768313 8.12195122,39.2743902 C8.54878262,38.8719492 9.05487512,38.5609767 9.6402439,38.3414634 C10.2256127,38.1219501 10.8475577,38.0121951 11.5060976,38.0121951 C12.1646374,38.0121951 12.7865824,38.1219501 13.3719512,38.3414634 C13.95732,38.5609767 14.4634125,38.8719492 14.8902439,39.2743902 C15.3170753,39.6768313 15.6554866,40.1615825 15.9054878,40.7286585 C16.1554891,41.2957345 16.2804878,41.9268258 16.2804878,42.6219512 C16.2804878,43.3170766 16.1554891,43.9512166 15.9054878,44.5243902 C15.6554866,45.0975638 15.3170753,45.5884126 14.8902439,45.9969512 C14.4634125,46.4054898 13.95732,46.7256086 13.3719512,46.9573171 C12.7865824,47.1890255 12.1646374,47.304878 11.5060976,47.304878 C10.8475577,47.304878 10.2256127,47.1890255 9.6402439,46.9573171 C9.05487512,46.7256086 8.54878262,46.4054898 8.12195122,45.9969512 C7.69511982,45.5884126 7.35670857,45.0975638 7.10670732,44.5243902 C6.85670607,43.9512166 6.73170732,43.3170766 6.73170732,42.6219512 Z M8.96341463,42.6219512 C8.96341463,42.9634163 9.01524338,43.3048763 9.11890244,43.6463415 C9.22256149,43.9878066 9.37804774,44.2926816 9.58536585,44.5609756 C9.79268396,44.8292696 10.0548765,45.0487796 10.3719512,45.2195122 C10.689026,45.3902448 11.067071,45.4756098 11.5060976,45.4756098 C11.9451241,45.4756098 12.3231691,45.3902448 12.6402439,45.2195122 C12.9573187,45.0487796 13.2195112,44.8292696 13.4268293,44.5609756 C13.6341474,44.2926816 13.7896336,43.9878066 13.8932927,43.6463415 C13.9969517,43.3048763 14.0487805,42.9634163 14.0487805,42.6219512 C14.0487805,42.2804861 13.9969517,41.9420748 13.8932927,41.6067073 C13.7896336,41.2713398 13.6341474,40.9695135 13.4268293,40.7012195 C13.2195112,40.4329255 12.9573187,40.2164642 12.6402439,40.0518293 C12.3231691,39.8871943 11.9451241,39.804878 11.5060976,39.804878 C11.067071,39.804878 10.689026,39.8871943 10.3719512,40.0518293 C10.0548765,40.2164642 9.79268396,40.4329255 9.58536585,40.7012195 C9.37804774,40.9695135 9.22256149,41.2713398 9.11890244,41.6067073 C9.01524338,41.9420748 8.96341463,42.2804861 8.96341463,42.6219512 Z M18.402439,38.2682927 L20.5060976,38.2682927 L20.5060976,39.7317073 L20.5426829,39.7317073 C20.7865866,39.2195096 21.1280466,38.8048796 21.5670732,38.4878049 C22.0060998,38.1707301 22.5182898,38.0121951 23.1036585,38.0121951 C23.1890248,38.0121951 23.2804873,38.0152439 23.3780488,38.0213415 C23.4756102,38.0274391 23.5609752,38.0426828 23.6341463,38.0670732 L23.6341463,40.0792683 C23.4878041,40.0426827 23.3628054,40.0182927 23.2591463,40.0060976 C23.1554873,39.9939024 23.0548785,39.9878049 22.9573171,39.9878049 C22.4573146,39.9878049 22.0548796,40.0792674 21.75,40.2621951 C21.4451204,40.4451229 21.2073179,40.6646329 21.0365854,40.9207317 C20.8658528,41.1768305 20.7500003,41.439023 20.6890244,41.7073171 C20.6280485,41.9756111 20.597561,42.1890236 20.597561,42.347561 L20.597561,47.0487805 L18.402439,47.0487805 L18.402439,38.2682927 Z" id="for-Chrome" fill="#FBC02D" fill-rule="nonzero"></path>
                <path d="M31.638,32.132 L41.235,32.132 L41.235,34.442 L34.284,34.442 L34.284,38.516 L40.836,38.516 L40.836,40.742 L34.284,40.742 L34.284,47 L31.638,47 L31.638,32.132 Z M43.209,36.92 L45.729,36.92 L45.729,47 L43.209,47 L43.209,36.92 Z M42.852,33.497 C42.852,33.090998 43.0024985,32.7375015 43.3035,32.4365 C43.6045015,32.1354985 43.9859977,31.985 44.448,31.985 C44.9100023,31.985 45.2984984,32.1284986 45.6135,32.4155 C45.9285016,32.7025014 46.086,33.0629978 46.086,33.497 C46.086,33.9310022 45.9285016,34.2914986 45.6135,34.5785 C45.2984984,34.8655014 44.9100023,35.009 44.448,35.009 C43.9859977,35.009 43.6045015,34.8585015 43.3035,34.5575 C43.0024985,34.2564985 42.852,33.903002 42.852,33.497 Z M48.795,36.92 L51.21,36.92 L51.21,38.6 L51.252,38.6 C51.5320014,38.0119971 51.9239975,37.5360018 52.428,37.172 C52.9320025,36.8079982 53.5199966,36.626 54.192,36.626 C54.2900005,36.626 54.3949994,36.6295 54.507,36.6365 C54.6190006,36.6435 54.7169996,36.6609999 54.801,36.689 L54.801,38.999 C54.6329992,38.9569998 54.4895006,38.9290001 54.3705,38.915 C54.2514994,38.9009999 54.1360006,38.894 54.024,38.894 C53.4499971,38.894 52.9880018,38.998999 52.638,39.209 C52.2879983,39.419001 52.015001,39.6709985 51.819,39.965 C51.622999,40.2590015 51.4900004,40.5599985 51.42,40.868 C51.3499997,41.1760015 51.315,41.4209991 51.315,41.603 L51.315,47 L48.795,47 L48.795,36.92 Z M63.159,40.952 C63.159,40.6299984 63.1135005,40.3220015 63.0225,40.028 C62.9314995,39.7339985 62.788001,39.4750011 62.592,39.251 C62.395999,39.0269989 62.1475015,38.8485007 61.8465,38.7155 C61.5454985,38.5824993 61.192002,38.516 60.786,38.516 C60.0299962,38.516 59.3895026,38.7434977 58.8645,39.1985 C58.3394974,39.6535023 58.0490003,40.2379964 57.993,40.952 L63.159,40.952 Z M65.679,42.086 L65.679,42.422 C65.679,42.5340006 65.6720001,42.6459994 65.658,42.758 L57.993,42.758 C58.0210001,43.1220018 58.1154992,43.4544985 58.2765,43.7555 C58.4375008,44.0565015 58.6509987,44.3154989 58.917,44.5325 C59.1830013,44.7495011 59.4839983,44.9209994 59.82,45.047 C60.1560017,45.1730006 60.5059982,45.236 60.87,45.236 C61.5000031,45.236 62.0319978,45.1205012 62.466,44.8895 C62.9000022,44.6584988 63.2569986,44.340002 63.537,43.934 L65.217,45.278 C64.222995,46.6220067 62.7810094,47.294 60.891,47.294 C60.1069961,47.294 59.3860033,47.1715012 58.728,46.9265 C58.0699967,46.6814988 57.4995024,46.3350022 57.0165,45.887 C56.5334976,45.4389978 56.1555014,44.8895033 55.8825,44.2385 C55.6094986,43.5874967 55.473,42.8490041 55.473,42.023 C55.473,41.2109959 55.6094986,40.4725033 55.8825,39.8075 C56.1555014,39.1424967 56.5299976,38.5755023 57.006,38.1065 C57.4820024,37.6374977 58.0454967,37.2735013 58.6965,37.0145 C59.3475033,36.7554987 60.0509962,36.626 60.807,36.626 C61.5070035,36.626 62.154497,36.7414988 62.7495,36.9725 C63.344503,37.2035012 63.8589978,37.5464977 64.293,38.0015 C64.7270022,38.4565023 65.0664988,39.0234966 65.3115,39.7025 C65.5565012,40.3815034 65.679,41.1759955 65.679,42.086 Z M68.514,38.936 L66.603,38.936 L66.603,36.92 L68.514,36.92 L68.514,35.429 C68.514,34.826997 68.5804993,34.2495028 68.7135,33.6965 C68.8465007,33.1434972 69.0704984,32.6570021 69.3855,32.237 C69.7005016,31.8169979 70.1169974,31.4845012 70.635,31.2395 C71.1530026,30.9944988 71.8039961,30.872 72.588,30.872 C72.8680014,30.872 73.1024991,30.8824999 73.2915,30.9035 C73.4805009,30.9245001 73.672999,30.9629997 73.869,31.019 L73.701,33.161 C73.5609993,33.1189998 73.4105008,33.0840001 73.2495,33.056 C73.0884992,33.0279999 72.9170009,33.014 72.735,33.014 C72.3709982,33.014 72.0770011,33.0839993 71.853,33.224 C71.6289989,33.3640007 71.4575006,33.5459989 71.3385,33.77 C71.2194994,33.9940011 71.1390002,34.2389987 71.097,34.505 C71.0549998,34.7710013 71.034,35.0299987 71.034,35.282 L71.034,36.92 L73.365,36.92 L73.365,38.936 L71.034,38.936 L71.034,47 L68.514,47 L68.514,38.936 Z M74.331,41.918 C74.331,41.119996 74.4744986,40.3955033 74.7615,39.7445 C75.0485014,39.0934967 75.4369976,38.5370023 75.927,38.075 C76.4170025,37.6129977 76.9979966,37.2560013 77.67,37.004 C78.3420034,36.7519987 79.0559962,36.626 79.812,36.626 C80.5680038,36.626 81.2819966,36.7519987 81.954,37.004 C82.6260034,37.2560013 83.2069975,37.6129977 83.697,38.075 C84.1870025,38.5370023 84.5754986,39.0934967 84.8625,39.7445 C85.1495014,40.3955033 85.293,41.119996 85.293,41.918 C85.293,42.716004 85.1495014,43.4439967 84.8625,44.102 C84.5754986,44.7600033 84.1870025,45.3234977 83.697,45.7925 C83.2069975,46.2615023 82.6260034,46.6289987 81.954,46.895 C81.2819966,47.1610013 80.5680038,47.294 79.812,47.294 C79.0559962,47.294 78.3420034,47.1610013 77.67,46.895 C76.9979966,46.6289987 76.4170025,46.2615023 75.927,45.7925 C75.4369976,45.3234977 75.0485014,44.7600033 74.7615,44.102 C74.4744986,43.4439967 74.331,42.716004 74.331,41.918 Z M76.893,41.918 C76.893,42.310002 76.9524994,42.701998 77.0715,43.094 C77.1905006,43.486002 77.3689988,43.8359985 77.607,44.144 C77.8450012,44.4520015 78.1459982,44.703999 78.51,44.9 C78.8740018,45.096001 79.3079975,45.194 79.812,45.194 C80.3160025,45.194 80.7499982,45.096001 81.114,44.9 C81.4780018,44.703999 81.7789988,44.4520015 82.017,44.144 C82.2550012,43.8359985 82.4334994,43.486002 82.5525,43.094 C82.6715006,42.701998 82.731,42.310002 82.731,41.918 C82.731,41.525998 82.6715006,41.1375019 82.5525,40.7525 C82.4334994,40.3674981 82.2550012,40.0210015 82.017,39.713 C81.7789988,39.4049985 81.4780018,39.1565009 81.114,38.9675 C80.7499982,38.7784991 80.3160025,38.684 79.812,38.684 C79.3079975,38.684 78.8740018,38.7784991 78.51,38.9675 C78.1459982,39.1565009 77.8450012,39.4049985 77.607,39.713 C77.3689988,40.0210015 77.1905006,40.3674981 77.0715,40.7525 C76.9524994,41.1375019 76.893,41.525998 76.893,41.918 Z M90.081,41.645 L86.448,36.92 L89.472,36.92 L91.656,40.049 L93.903,36.92 L96.801,36.92 L93.189,41.645 L97.305,47 L94.239,47 L91.614,43.325 L88.968,47 L85.986,47 L90.081,41.645 Z" id="Firefox" fill="#FBC02D"></path>
            </g>
        </g>
    </g>
</svg>