<?xml version="1.0" encoding="UTF-8" standalone="no"?>
<svg width="320px" height="64px" viewBox="0 0 320 64" version="1.1" xmlns="http://www.w3.org/2000/svg" xmlns:xlink="http://www.w3.org/1999/xlink" xmlns:sketch="http://www.bohemiancoding.com/sketch/ns">
    <!-- Generator: Sketch 3.3.3 (12081) - http://www.bohemiancoding.com/sketch -->
    <title>btn.tweet copy</title>
    <desc>Created with Sketch.</desc>
    <defs></defs>
    <g id="Page-1" stroke="none" stroke-width="1" fill="none" fill-rule="evenodd" sketch:type="MSPage">
        <g id="001-landing-page" sketch:type="MSArtboardGroup" transform="translate(-740.000000, -624.000000)">
            <g id="body" sketch:type="MSLayerGroup" transform="translate(-585.000000, 18.000000)">
                <g id="btn.tweet-copy" transform="translate(1325.000000, 606.000000)">
                    <rect id="Rectangle-16-Copy" stroke="#FFFFFF" stroke-width="2" sketch:type="MSShapeGroup" x="0" y="0" width="320" height="64" rx="4"></rect>
                    <path d="M23.221,32.3353519 C23.221,40.239467 28.3469287,46.9452707 35.4550332,49.3107877 C36.3491009,49.4763887 36.6773404,48.9227066 36.6773404,48.4501957 C36.6773404,48.0236028 36.6607507,46.6143649 36.6530483,45.1195122 C31.6761309,46.2016955 30.6259421,43.008766 30.6259421,43.008766 C29.8121569,40.9409753 28.6396188,40.3911444 28.6396188,40.3911444 C27.016492,39.2808179 28.761968,39.3036287 28.761968,39.3036287 C30.5583982,39.4295329 31.5043088,41.1471619 31.5043088,41.1471619 C33.0998848,43.8820965 35.6893631,43.0914184 36.7102236,42.6343122 C36.8707885,41.4783639 37.334412,40.6885745 37.8460273,40.2421332 C33.872492,39.7897669 29.6954363,38.2558099 29.6954363,31.4009949 C29.6954363,29.447851 30.3942785,27.8519788 31.5386732,26.5991583 C31.3529276,26.1482733 30.740589,24.3290322 31.7119766,21.8648656 C31.7119766,21.8648656 33.2142354,21.3840599 36.6329037,23.6986227 C38.0599162,23.3022468 39.5903184,23.1034663 41.1106481,23.0966527 C42.6309779,23.1034663 44.162565,23.3022468 45.5922438,23.6986227 C49.0067646,21.3840599 50.5069497,21.8648656 50.5069497,21.8648656 C51.4807073,24.3290322 50.8680724,26.1482733 50.6823268,26.5991583 C51.8293877,27.8519788 52.52349,29.447851 52.52349,31.4009949 C52.52349,38.2721034 48.3384357,39.785027 44.354828,40.2279134 C44.9964949,40.7830767 45.5682479,41.8717774 45.5682479,43.5408222 C45.5682479,45.9341862 45.5475107,47.860668 45.5475107,48.4501957 C45.5475107,48.9262616 45.8695291,49.484091 46.7763354,49.3084177 C53.8805887,46.9402345 59,40.2368008 59,32.3353519 C59,22.4549858 50.9904217,14.446 41.1106481,14.446 C31.2317633,14.446 23.221,22.4549858 23.221,32.3353519 Z" id="Fill-51-Copy" fill="#FFFFFF" sketch:type="MSShapeGroup"></path>
                    <text id="View-Source-Code" sketch:type="MSTextLayer" font-family="Avenir Next" font-size="24" font-weight="normal" line-spacing="48" fill="#FFFFFF">
                        <tspan x="80" y="39">View Source Code</tspan>
                    </text>
                </g>
            </g>
        </g>
    </g>
</svg>