<?xml version="1.0" encoding="UTF-8" standalone="no"?>
<svg width="320px" height="64px" viewBox="0 0 320 64" version="1.1" xmlns="http://www.w3.org/2000/svg" xmlns:xlink="http://www.w3.org/1999/xlink" xmlns:sketch="http://www.bohemiancoding.com/sketch/ns">
    <!-- Generator: Sketch 3.3.3 (12081) - http://www.bohemiancoding.com/sketch -->
    <title>btn.tweet</title>
    <desc>Created with Sketch.</desc>
    <defs></defs>
    <g id="Page-1" stroke="none" stroke-width="1" fill="none" fill-rule="evenodd" sketch:type="MSPage">
        <g id="001-landing-page" sketch:type="MSArtboardGroup" transform="translate(-740.000000, -544.000000)">
            <g id="body" sketch:type="MSLayerGroup" transform="translate(-585.000000, 18.000000)">
                <g id="btn.tweet" transform="translate(1325.000000, 526.000000)">
                    <rect id="Rectangle-16-Copy" stroke="#FFFFFF" stroke-width="2" sketch:type="MSShapeGroup" x="0" y="0" width="320" height="64" rx="4"></rect>
                    <path d="M43.2848487,25.673351 C43.272603,25.3950899 43.2539772,25.1185349 43.229115,24.8438201 L43.2316334,24.8433879 C43.2005642,24.5614078 43.1846154,24.2748741 43.1846154,23.9846154 C43.1846154,19.7022844 46.6561306,16.2307692 50.9384615,16.2307692 C53.0963205,16.2307692 55.0483024,17.1122335 56.4539801,18.5347348 L56.4539801,18.5347348 C57.6319256,18.4413695 59.4331609,18.0149932 61.7245194,16.6104267 C61.7245194,16.6104267 61.138163,19.4943639 58.1586354,21.1520485 C58.1610557,21.1582131 58.1634684,21.1643816 58.1658734,21.1705539 C59.7571361,20.7638035 60.5125556,20.707051 63.0039964,19.7383414 C61.3783347,22.0154589 60.6798494,22.8961967 58.6915778,23.8771209 C58.6920639,23.9128944 58.6923077,23.9487264 58.6923077,23.9846154 C58.6923077,24.1442807 58.6874818,24.3028189 58.6779679,24.460092 L58.6779679,24.460092 C58.6875011,24.7311931 58.6923077,25.0034968 58.6923077,25.2769231 C58.6923077,37.8860087 48.4706241,48.1076923 35.8615385,48.1076923 C31.3960457,48.1076923 27.2299841,46.8256746 23.7113357,44.609621 C24.167153,44.6440246 24.6276851,44.6615385 25.0923077,44.6615385 C29.2275046,44.6615385 33.0588418,43.257313 36.1295915,40.9028989 C30.4651884,41.1550289 28.1232572,36.2245712 28.1232572,35.3177584 C29.9710637,35.5554387 31.4484675,35.4912861 31.4484675,35.3177584 C25.7384615,33.2152344 25.2368089,29.0123948 25.2368089,27.0780349 C26.770583,27.9444111 28.6817008,28.1980769 28.8712139,28.1980769 C26.6670974,27.1079026 23.6765325,22.6409856 26.2933293,17.3146334 C33.6263211,25.5117228 41.1451568,25.7836567 43.2848487,25.673351 Z" id="icon.twitter" fill="#FFFFFF" sketch:type="MSShapeGroup"></path>
                    <text id="Mention-on-Twitter" sketch:type="MSTextLayer" font-family="Avenir Next" font-size="24" font-weight="normal" line-spacing="48" fill="#FFFFFF">
                        <tspan x="80" y="39">Mention on Twitter</tspan>
                    </text>
                </g>
            </g>
        </g>
    </g>
</svg>