<?xml version="1.0" encoding="UTF-8" standalone="no"?>
<svg width="160px" height="52px" viewBox="0 0 160 52" version="1.1" xmlns="http://www.w3.org/2000/svg" xmlns:xlink="http://www.w3.org/1999/xlink" xmlns:sketch="http://www.bohemiancoding.com/sketch/ns">
    <!-- Generator: Sketch 3.3.3 (12081) - http://www.bohemiancoding.com/sketch -->
    <title>footer.wordmark</title>
    <desc>Created with Sketch.</desc>
    <defs></defs>
    <g id="Page-1" stroke="none" stroke-width="1" fill="none" fill-rule="evenodd" sketch:type="MSPage">
        <g id="001-landing-page" sketch:type="MSArtboardGroup" transform="translate(-141.000000, -869.000000)">
            <g id="footer" sketch:type="MSLayerGroup" transform="translate(100.000000, 816.000000)">
                <g id="footer.wordmark" transform="translate(41.000000, 53.000000)" sketch:type="MSShapeGroup">
                    <g id="ID" transform="translate(0.335992, 0.000000)">
                        <path d="M19.8212091,19.7708069 C19.8212091,21.1531471 19.5459173,22.3150105 18.9953254,23.2564319 C18.4447335,24.1978533 17.7146117,24.954554 16.8049382,25.5265569 C15.8952646,26.0985597 14.859928,26.5096806 13.6988972,26.7599319 C12.5378665,27.0101831 11.3469302,27.1353069 10.1260525,27.1353069 L0,27.1353069 L0,1.82430688 L10.1260525,1.82430688 C11.1075424,1.82430688 12.112956,1.92559754 13.1423234,2.12818188 C14.1716909,2.33076623 15.1052892,2.67634611 15.9431465,3.16493188 C16.7810037,3.65351766 17.4632486,4.31488605 17.9899017,5.14905688 C18.5165549,5.98322772 18.7798775,7.04380045 18.7798775,8.33080688 C18.7798775,9.73698058 18.3968628,10.898844 17.6308219,11.8164319 C16.864781,12.7340198 15.8593674,13.3953882 14.6145509,13.8005569 L14.6145509,13.8720569 C15.3327143,13.9912241 16.0089746,14.2116803 16.6433522,14.5334319 C17.2777298,14.8551835 17.8283135,15.2663044 18.2951196,15.7668069 C18.7619258,16.2673094 19.1329713,16.8512202 19.4082673,17.5185569 C19.6835632,18.1858936 19.8212091,18.936636 19.8212091,19.7708069 L19.8212091,19.7708069 Z M12.8550595,9.15305688 C12.8550595,8.29505259 12.5259063,7.66943385 11.8675899,7.27618188 C11.2092735,6.88292992 10.2337829,6.68630688 8.94108889,6.68630688 L5.92481794,6.68630688 L5.92481794,11.9058069 L9.22835279,11.9058069 C10.3774141,11.9058069 11.2691202,11.6734342 11.9034979,11.2086819 C12.5378755,10.7439296 12.8550595,10.0587281 12.8550595,9.15305688 L12.8550595,9.15305688 Z M13.6809432,19.1988069 C13.6809432,18.150135 13.2859593,17.4232256 12.4959797,17.0180569 C11.706,16.6128882 10.6527095,16.4103069 9.33607675,16.4103069 L5.92481794,16.4103069 L5.92481794,22.2018069 L9.37198474,22.2018069 C9.8507603,22.2018069 10.3474825,22.160099 10.8621662,22.0766819 C11.37685,21.9932648 11.8436491,21.844308 12.2625777,21.6298069 C12.6815064,21.4153058 13.0226288,21.1114339 13.2859554,20.7181819 C13.5492819,20.3249299 13.6809432,19.8184766 13.6809432,19.1988069 L13.6809432,19.1988069 Z M34.1125881,19.3775569 L33.3585204,19.3775569 C32.7121734,19.3775569 32.0598515,19.4073483 31.4015351,19.4669319 C30.7432187,19.5265155 30.1567274,19.6397227 29.6420437,19.8065569 C29.12736,19.9733911 28.702453,20.2176803 28.3673101,20.5394319 C28.0321672,20.8611835 27.8645983,21.2842209 27.8645983,21.8085569 C27.8645983,22.1422252 27.9423982,22.4282224 28.0980002,22.6665569 C28.2536023,22.9048914 28.4510942,23.0955562 28.690482,23.2385569 C28.9298698,23.3815576 29.2051616,23.4828483 29.5163657,23.5424319 C29.8275699,23.6020155 30.1268001,23.6318069 30.4140654,23.6318069 C31.6110043,23.6318069 32.5266489,23.3041018 33.1610265,22.6486819 C33.7954041,21.9932619 34.1125881,21.1054792 34.1125881,19.9853069 L34.1125881,19.3775569 Z M23.3042839,11.7628069 C24.3575901,10.7618019 25.5844341,10.0110594 26.9848526,9.51055688 C28.3852711,9.01005438 29.8155917,8.75980688 31.2758571,8.75980688 C32.7840001,8.75980688 34.058721,8.94451337 35.1000578,9.31393188 C36.1413946,9.6833504 36.9852239,10.2553447 37.6315709,11.0299319 C38.2779179,11.8045191 38.7507017,12.781676 39.0499364,13.9614319 C39.3491711,15.1411878 39.4987863,16.5413821 39.4987863,18.1620569 L39.4987863,27.1353069 L34.1125881,27.1353069 L34.1125881,25.2405569 L34.0048642,25.2405569 C33.5500274,25.9793939 32.8617978,26.5513882 31.9401549,26.9565569 C31.0185119,27.3617256 30.0190829,27.5643069 28.9418379,27.5643069 C28.2236746,27.5643069 27.4815836,27.4689745 26.7155427,27.2783069 C25.9495018,27.0876393 25.2493031,26.777809 24.6149254,26.3488069 C23.9805478,25.9198047 23.4598872,25.3478105 23.052928,24.6328069 C22.6459688,23.9178033 22.4424922,23.0359788 22.4424922,21.9873069 C22.4424922,20.7003004 22.7955839,19.6635608 23.5017778,18.8770569 C24.2079718,18.090553 25.1176317,17.482809 26.2307849,17.0538069 C27.3439381,16.6248047 28.5827512,16.3388076 29.9472616,16.1958069 C31.3117719,16.0528062 32.6403542,15.9813069 33.9330482,15.9813069 L33.9330482,15.6953069 C33.9330482,14.8134691 33.6218488,14.1640173 32.9994405,13.7469319 C32.3770323,13.3298465 31.6110029,13.1213069 30.7013293,13.1213069 C29.8634721,13.1213069 29.0555505,13.3000551 28.2775402,13.6575569 C27.4995299,14.0150587 26.8352388,14.4440544 26.2846469,14.9445569 L23.3042839,11.7628069 Z M54.4006011,14.5870569 C53.9218255,14.1342213 53.3592727,13.7528918 52.7129257,13.4430569 C52.0665787,13.133222 51.3843337,12.9783069 50.6661704,12.9783069 C50.1155785,12.9783069 49.6068871,13.0855558 49.1400809,13.3000569 C48.6732747,13.514558 48.4398752,13.8839709 48.4398752,14.4083069 C48.4398752,14.9088094 48.6972132,15.2663058 49.2118969,15.4808069 C49.7265806,15.695308 50.5584407,15.9336389 51.707502,16.1958069 C52.3777878,16.3388076 53.0540481,16.5413889 53.7363033,16.8035569 C54.4185585,17.0657249 55.0349728,17.4113047 55.5855647,17.8403069 C56.1361566,18.269309 56.5790173,18.7936371 56.9141602,19.4133069 C57.2493031,20.0329766 57.416872,20.7718026 57.416872,21.6298069 C57.416872,22.7499792 57.1894571,23.6973447 56.7346203,24.4719319 C56.2797835,25.2465191 55.6873076,25.8721378 54.9571749,26.3488069 C54.2270422,26.8254759 53.4071513,27.1710558 52.4974777,27.3855569 C51.5878042,27.600058 50.6781443,27.7073069 49.7684707,27.7073069 C48.3082052,27.7073069 46.8778847,27.4749342 45.4774662,27.0101819 C44.0770477,26.5454296 42.9100497,25.8602281 41.9764374,24.9545569 L45.2799723,21.4868069 C45.8066254,22.0588097 46.4529627,22.5354716 47.2190036,22.9168069 C47.9850445,23.2981421 48.7989507,23.4888069 49.6607467,23.4888069 C50.1395223,23.4888069 50.6123061,23.3755997 51.0791122,23.1491819 C51.5459184,22.9227641 51.779318,22.5235597 51.779318,21.9515569 C51.779318,21.4033875 51.492057,20.9982249 50.9175263,20.7360569 C50.3429956,20.4738889 49.4453049,20.1998083 48.2244272,19.9138069 C47.602019,19.7708062 46.9796201,19.5801414 46.3572119,19.3418069 C45.7348037,19.1034724 45.1782354,18.7817256 44.6874905,18.3765569 C44.1967455,17.9713882 43.795777,17.4708932 43.4845729,16.8750569 C43.1733688,16.2792206 43.017769,15.5642277 43.017769,14.7300569 C43.017769,13.6575515 43.245184,12.7459356 43.7000208,11.9951819 C44.1548576,11.2444281 44.7413489,10.6307259 45.4595122,10.1540569 C46.1776755,9.67738783 46.973628,9.32584968 47.8473934,9.09943188 C48.7211588,8.87301409 49.5889265,8.75980688 50.4507225,8.75980688 C51.791294,8.75980688 53.1019225,8.96834647 54.3826471,9.38543188 C55.6633717,9.8025173 56.7465852,10.428136 57.63232,11.2623069 L54.4006011,14.5870569 Z M73.1445706,16.1958069 C73.1445706,15.2663022 72.8513249,14.4678936 72.2648249,13.8005569 C71.6783248,13.1332202 70.7985879,12.7995569 69.6255878,12.7995569 C69.0510571,12.7995569 68.5244119,12.888931 68.0456363,13.0676819 C67.5668608,13.2464328 67.1479385,13.490722 66.7888568,13.8005569 C66.4297751,14.1103918 66.1425141,14.4738465 65.9270651,14.8909319 C65.7116161,15.3080173 65.591924,15.7429713 65.5679852,16.1958069 L73.1445706,16.1958069 Z M78.5666767,18.4480569 L78.5666767,19.1630569 C78.5666767,19.4013914 78.5547075,19.6278058 78.5307687,19.8423069 L65.5679852,19.8423069 C65.6158628,20.3428094 65.7654779,20.7956382 66.016835,21.2008069 C66.2681922,21.6059756 66.5913609,21.9575137 66.9863507,22.2554319 C67.3813405,22.55335 67.8242013,22.7857227 68.3149462,22.9525569 C68.8056912,23.1193911 69.3143826,23.2028069 69.8410357,23.2028069 C70.7746481,23.2028069 71.5646159,23.0300169 72.2109629,22.6844319 C72.8573099,22.3388468 73.3839551,21.8919763 73.7909143,21.3438069 L77.8844249,23.9178069 C77.0465677,25.133313 75.9394158,26.0687619 74.5629361,26.7241819 C73.1864563,27.3796018 71.5885669,27.7073069 69.7692197,27.7073069 C68.4286482,27.7073069 67.159912,27.4987673 65.9629731,27.0816819 C64.7660342,26.6645965 63.7187283,26.0568525 62.8210242,25.2584319 C61.92332,24.4600112 61.2171366,23.4768961 60.7024529,22.3090569 C60.1877692,21.1412177 59.9304312,19.8065644 59.9304312,18.3050569 C59.9304312,16.8512163 60.1817846,15.5344378 60.6844989,14.3546819 C61.1872132,13.174926 61.8694582,12.173936 62.7312542,11.3516819 C63.5930502,10.5294278 64.610433,9.89189248 65.7834331,9.43905688 C66.9564333,8.98622129 68.2251695,8.75980688 69.5896798,8.75980688 C70.9063126,8.75980688 72.1152028,8.98026301 73.2163865,9.42118188 C74.3175703,9.86210076 75.2631379,10.499636 76.0531176,11.3338069 C76.8430972,12.1679777 77.4595115,13.1808843 77.9023789,14.3725569 C78.3452463,15.5642295 78.5666767,16.9227159 78.5666767,18.4480569 L78.5666767,18.4480569 Z M82.3011074,27.1353069 L82.3011074,0.108306885 L88.2618333,0.108306885 L88.2618333,27.1353069 L82.3011074,27.1353069 Z M99.3214935,3.64755688 C99.3214935,4.10039248 99.2317244,4.52342992 99.0521836,4.91668188 C98.8726427,5.30993385 98.6332585,5.64955545 98.3340238,5.93555688 C98.0347891,6.22155831 97.6757128,6.44797272 97.2567842,6.61480688 C96.8378556,6.78164105 96.4009794,6.86505688 95.9461426,6.86505688 C94.9885915,6.86505688 94.1866545,6.54926838 93.5403075,5.91768188 C92.8939605,5.28609539 92.5707918,4.52939463 92.5707918,3.64755688 C92.5707918,3.21855474 92.6545763,2.80743385 92.8221477,2.41418188 C92.9897192,2.02092992 93.2291034,1.68130831 93.5403075,1.39530688 C93.8515116,1.10930545 94.2105879,0.876932779 94.6175471,0.698181885 C95.0245063,0.519430991 95.4673671,0.430056885 95.9461426,0.430056885 C96.4009794,0.430056885 96.8378556,0.513472717 97.2567842,0.680306885 C97.6757128,0.847141052 98.0347891,1.07355545 98.3340238,1.35955688 C98.6332585,1.64555831 98.8726427,1.98517992 99.0521836,2.37843188 C99.2317244,2.77168385 99.3214935,3.19472129 99.3214935,3.64755688 L99.3214935,3.64755688 Z M93.0016877,27.1353069 L93.0016877,9.33180688 L98.8905976,9.33180688 L98.8905976,27.1353069 L93.0016877,27.1353069 Z M115.300548,27.1353069 L115.300548,17.4113069 C115.300548,16.9108044 115.258656,16.4341425 115.17487,15.9813069 C115.091084,15.5284713 114.953438,15.1292669 114.761928,14.7836819 C114.570418,14.4380968 114.301111,14.1640162 113.953998,13.9614319 C113.606886,13.7588475 113.17001,13.6575569 112.643357,13.6575569 C112.116704,13.6575569 111.655889,13.7588475 111.260899,13.9614319 C110.865909,14.1640162 110.536756,14.4440551 110.27343,14.8015569 C110.010103,15.1590587 109.812611,15.5701796 109.680948,16.0349319 C109.549285,16.4996842 109.483454,16.9823044 109.483454,17.4828069 L109.483454,27.1353069 L103.558636,27.1353069 L103.558636,9.33180688 L109.268006,9.33180688 L109.268006,11.7985569 L109.339822,11.7985569 C109.555271,11.4172216 109.836547,11.0418504 110.18366,10.6724319 C110.530772,10.3030134 110.937725,9.98722486 111.404531,9.72505688 C111.871337,9.46288891 112.380029,9.24839105 112.930621,9.08155688 C113.481213,8.91472272 114.067704,8.83130688 114.690112,8.83130688 C115.887051,8.83130688 116.904434,9.04580474 117.742291,9.47480688 C118.580148,9.90380903 119.256409,10.4579285 119.771092,11.1371819 C120.285776,11.8164353 120.656822,12.5969691 120.88424,13.4788069 C121.111658,14.3606446 121.225366,15.2424691 121.225366,16.1243069 L121.225366,27.1353069 L115.300548,27.1353069 Z M137.994396,16.1958069 C137.994396,15.2663022 137.70115,14.4678936 137.11465,13.8005569 C136.52815,13.1332202 135.648413,12.7995569 134.475413,12.7995569 C133.900883,12.7995569 133.374237,12.888931 132.895462,13.0676819 C132.416686,13.2464328 131.997764,13.490722 131.638682,13.8005569 C131.279601,14.1103918 130.99234,14.4738465 130.776891,14.8909319 C130.561442,15.3080173 130.441749,15.7429713 130.417811,16.1958069 L137.994396,16.1958069 Z M143.416502,18.4480569 L143.416502,19.1630569 C143.416502,19.4013914 143.404533,19.6278058 143.380594,19.8423069 L130.417811,19.8423069 C130.465688,20.3428094 130.615303,20.7956382 130.866661,21.2008069 C131.118018,21.6059756 131.441186,21.9575137 131.836176,22.2554319 C132.231166,22.55335 132.674027,22.7857227 133.164772,22.9525569 C133.655517,23.1193911 134.164208,23.2028069 134.690861,23.2028069 C135.624474,23.2028069 136.414441,23.0300169 137.060788,22.6844319 C137.707135,22.3388468 138.233781,21.8919763 138.64074,21.3438069 L142.73425,23.9178069 C141.896393,25.133313 140.789241,26.0687619 139.412762,26.7241819 C138.036282,27.3796018 136.438392,27.7073069 134.619045,27.7073069 C133.278474,27.7073069 132.009737,27.4987673 130.812799,27.0816819 C129.61586,26.6645965 128.568554,26.0568525 127.67085,25.2584319 C126.773145,24.4600112 126.066962,23.4768961 125.552278,22.3090569 C125.037595,21.1412177 124.780257,19.8065644 124.780257,18.3050569 C124.780257,16.8512163 125.03161,15.5344378 125.534324,14.3546819 C126.037039,13.174926 126.719284,12.173936 127.58108,11.3516819 C128.442876,10.5294278 129.460258,9.89189248 130.633259,9.43905688 C131.806259,8.98622129 133.074995,8.75980688 134.439505,8.75980688 C135.756138,8.75980688 136.965028,8.98026301 138.066212,9.42118188 C139.167396,9.86210076 140.112963,10.499636 140.902943,11.3338069 C141.692923,12.1679777 142.309337,13.1808843 142.752204,14.3725569 C143.195072,15.5642295 143.416502,16.9227159 143.416502,18.4480569 L143.416502,18.4480569 Z M158.677397,14.1223069 C158.41407,14.0508065 158.156732,14.0031403 157.905375,13.9793069 C157.654018,13.9554734 157.408649,13.9435569 157.169261,13.9435569 C156.379282,13.9435569 155.714991,14.0865555 155.176368,14.3725569 C154.637746,14.6585583 154.206854,15.0041382 153.88368,15.4093069 C153.560507,15.8144756 153.327107,16.2553878 153.183475,16.7320569 C153.039842,17.2087259 152.968027,17.6258051 152.968027,17.9833069 L152.968027,27.1353069 L147.079117,27.1353069 L147.079117,9.33180688 L152.752579,9.33180688 L152.752579,11.9058069 L152.824395,11.9058069 C153.279232,11.0001357 153.925569,10.2613097 154.763426,9.68930688 C155.601283,9.11730402 156.570789,8.83130688 157.671973,8.83130688 C157.911361,8.83130688 158.144761,8.84322343 158.372179,8.86705688 C158.599597,8.89089034 158.78512,8.92663998 158.928753,8.97430688 L158.677397,14.1223069 Z" id="Baseliner" fill="#FFFFFF"></path>
                        <path d="M1.8113231,43.3597561 L0,43.3597561 L0,41.4573171 L1.8113231,41.4573171 L1.8113231,40.0503049 C1.8113231,39.4822126 1.87435385,38.9372485 2.00041726,38.4153963 C2.12648067,37.8935441 2.33879481,37.4344532 2.63736605,37.0381098 C2.93593728,36.6417663 3.33070888,36.3279991 3.82169268,36.0967988 C4.31267649,35.8655984 4.92971445,35.75 5.67282508,35.75 C5.93822173,35.75 6.16048809,35.7599084 6.33963083,35.7797256 C6.51877357,35.7995428 6.70123104,35.8358737 6.88700869,35.8887195 L6.7277715,37.910061 C6.59507317,37.8704266 6.45242461,37.8373985 6.29982153,37.8109756 C6.14721846,37.7845527 5.98466545,37.7713415 5.81215762,37.7713415 C5.46714198,37.7713415 5.18847967,37.8373977 4.97616235,37.9695122 C4.76384503,38.1016267 4.60129202,38.2733729 4.48849844,38.4847561 C4.37570486,38.6961393 4.29940447,38.9273361 4.25959497,39.1783537 C4.21978547,39.4293712 4.19988102,39.6737793 4.19988102,39.9115854 L4.19988102,41.4573171 L6.40929711,41.4573171 L6.40929711,43.3597561 L4.19988102,43.3597561 L4.19988102,50.9695122 L1.8113231,50.9695122 L1.8113231,43.3597561 Z M7.32491098,46.1737805 C7.32491098,45.4207279 7.46092472,44.7370458 7.73295629,44.1227134 C8.00498786,43.5083811 8.37322019,42.9832339 8.83766433,42.5472561 C9.30210847,42.1112783 9.85279827,41.7743914 10.4897502,41.5365854 C11.1267022,41.2987793 11.8034535,41.179878 12.5200245,41.179878 C13.2365954,41.179878 13.9133467,41.2987793 14.5502987,41.5365854 C15.1872507,41.7743914 15.7379405,42.1112783 16.2023846,42.5472561 C16.6668288,42.9832339 17.0350611,43.5083811 17.3070927,44.1227134 C17.5791242,44.7370458 17.715138,45.4207279 17.715138,46.1737805 C17.715138,46.926833 17.5791242,47.613818 17.3070927,48.2347561 C17.0350611,48.8556942 16.6668288,49.387447 16.2023846,49.8300305 C15.7379405,50.272614 15.1872507,50.6194093 14.5502987,50.8704268 C13.9133467,51.1214443 13.2365954,51.2469512 12.5200245,51.2469512 C11.8034535,51.2469512 11.1267022,51.1214443 10.4897502,50.8704268 C9.85279827,50.6194093 9.30210847,50.272614 8.83766433,49.8300305 C8.37322019,49.387447 8.00498786,48.8556942 7.73295629,48.2347561 C7.46092472,47.613818 7.32491098,46.926833 7.32491098,46.1737805 L7.32491098,46.1737805 Z M9.75327821,46.1737805 C9.75327821,46.543701 9.80967415,46.913616 9.92246773,47.2835366 C10.0352613,47.6534571 10.2044491,47.9837384 10.4300363,48.2743902 C10.6556234,48.5650421 10.9409206,48.8028446 11.2859362,48.9878049 C11.6309519,49.1727652 12.0423105,49.2652439 12.5200245,49.2652439 C12.9977384,49.2652439 13.4090971,49.1727652 13.7541127,48.9878049 C14.0991284,48.8028446 14.3844255,48.5650421 14.6100127,48.2743902 C14.8355998,47.9837384 15.0047876,47.6534571 15.1175812,47.2835366 C15.2303748,46.913616 15.2867707,46.543701 15.2867707,46.1737805 C15.2867707,45.8038599 15.2303748,45.4372478 15.1175812,45.0739329 C15.0047876,44.7106181 14.8355998,44.3836397 14.6100127,44.0929878 C14.3844255,43.8023359 14.0991284,43.5678363 13.7541127,43.3894817 C13.4090971,43.2111272 12.9977384,43.1219512 12.5200245,43.1219512 C12.0423105,43.1219512 11.6309519,43.2111272 11.2859362,43.3894817 C10.9409206,43.5678363 10.6556234,43.8023359 10.4300363,44.0929878 C10.2044491,44.3836397 10.0352613,44.7106181 9.92246773,45.0739329 C9.80967415,45.4372478 9.75327821,45.8038599 9.75327821,46.1737805 L9.75327821,46.1737805 Z M20.0240773,41.4573171 L22.313112,41.4573171 L22.313112,43.0426829 L22.3529213,43.0426829 C22.6183179,42.4878021 22.9898677,42.0386196 23.4675816,41.695122 C23.9452956,41.3516243 24.5026202,41.179878 25.1395722,41.179878 C25.232461,41.179878 25.3319833,41.1831809 25.4381419,41.1897866 C25.5443006,41.1963923 25.637188,41.2129064 25.716807,41.2393293 L25.716807,43.4192073 C25.557569,43.379573 25.4215553,43.3531505 25.3087617,43.339939 C25.1959681,43.3267276 25.0864937,43.320122 24.980335,43.320122 C24.4362719,43.320122 23.998374,43.4192063 23.6666281,43.617378 C23.3348823,43.8155498 23.0761245,44.0533523 22.8903468,44.3307927 C22.7045692,44.6082331 22.5785076,44.892275 22.5121585,45.1829268 C22.4458093,45.4735787 22.4126352,45.7047756 22.4126352,45.8765244 L22.4126352,50.9695122 L20.0240773,50.9695122 L20.0240773,41.4573171 Z M42.5362358,40.2286585 C42.1646805,39.7266235 41.6803388,39.3600113 41.0831964,39.128811 C40.4860539,38.8976106 39.90219,38.7820122 39.3315872,38.7820122 C38.6017464,38.7820122 37.9382647,38.9141247 37.3411223,39.1783537 C36.7439798,39.4425826 36.2297815,39.805892 35.7985119,40.2682927 C35.3672424,40.7306934 35.0355015,41.2723546 34.8032795,41.8932927 C34.5710574,42.5142307 34.4549481,43.1880045 34.4549481,43.9146341 C34.4549481,44.6808981 34.56774,45.3810944 34.7933271,46.0152439 C35.0189143,46.6493934 35.3407029,47.1943575 35.7587026,47.6501524 C36.1767024,48.1059474 36.677631,48.4593483 37.2615037,48.7103659 C37.8453763,48.9613834 38.5022232,49.0868902 39.232064,49.0868902 C39.9884444,49.0868902 40.6585609,48.9382637 41.2424336,48.6410061 C41.8263062,48.3437485 42.2973782,47.9507138 42.6556637,47.4618902 L44.6660333,48.8689024 C44.0423511,49.6483779 43.2793472,50.2527926 42.3769986,50.6821646 C41.47465,51.1115367 40.4197141,51.3262195 39.2121593,51.3262195 C38.1107632,51.3262195 37.0989536,51.1445648 36.1767003,50.78125 C35.2544469,50.4179352 34.4615863,49.9093021 33.7980947,49.2553354 C33.134603,48.6013687 32.6170873,47.8219049 32.245532,46.9169207 C31.8739767,46.0119365 31.6882018,45.0111843 31.6882018,43.9146341 C31.6882018,42.7916611 31.8839289,41.7776976 32.275389,40.8727134 C32.6668491,39.9677292 33.2042692,39.1981739 33.8876656,38.5640244 C34.571062,37.9298749 35.3771922,37.4410586 36.3060805,37.097561 C37.2349688,36.7540633 38.2434609,36.5823171 39.3315872,36.5823171 C39.7827615,36.5823171 40.2538335,36.6252536 40.7448173,36.711128 C41.2358011,36.7970025 41.7068731,36.929115 42.1580474,37.1074695 C42.6092217,37.2858241 43.03385,37.5071125 43.431945,37.7713415 C43.83004,38.0355704 44.1684156,38.3526404 44.4470821,38.722561 L42.5362358,40.2286585 Z M51.4137094,41.179878 C52.0373915,41.179878 52.5714943,41.2888709 53.0160337,41.5068598 C53.4605731,41.7248487 53.825488,42.0121933 54.1107894,42.3689024 C54.3960908,42.7256115 54.6050875,43.1351603 54.7377858,43.597561 C54.8704842,44.0599617 54.9368323,44.5355667 54.9368323,45.0243902 L54.9368323,50.9695122 L52.5482744,50.9695122 L52.5482744,45.7378049 C52.5482744,45.4603645 52.52837,45.1730198 52.4885605,44.8757622 C52.448751,44.5785046 52.3658158,44.307674 52.2397523,44.0632622 C52.1136889,43.8188504 51.9345489,43.6173788 51.7023268,43.4588415 C51.4701047,43.3003041 51.1615858,43.2210366 50.7767606,43.2210366 C50.3919355,43.2210366 50.0601946,43.2936985 49.7815281,43.4390244 C49.5028617,43.5843503 49.2706431,43.7792163 49.0848654,44.023628 C48.8990878,44.2680398 48.7597566,44.5421733 48.6668678,44.8460366 C48.573979,45.1498999 48.5275352,45.4603643 48.5275352,45.777439 L48.5275352,50.9695122 L46.1389773,50.9695122 L46.1389773,35.9878049 L48.5275352,35.9878049 L48.5275352,42.785061 L48.5673445,42.785061 C48.6602334,42.5868893 48.7962471,42.3920233 48.9753898,42.2004573 C49.1545326,42.0088913 49.3635293,41.8371451 49.6023863,41.6852134 C49.8412433,41.5332818 50.1132708,41.4110777 50.4184769,41.3185976 C50.7236831,41.2261174 51.0554239,41.179878 51.4137094,41.179878 L51.4137094,41.179878 Z M57.7234833,41.4573171 L60.0125179,41.4573171 L60.0125179,43.0426829 L60.0523272,43.0426829 C60.3177239,42.4878021 60.6892736,42.0386196 61.1669876,41.695122 C61.6447016,41.3516243 62.2020262,41.179878 62.8389782,41.179878 C62.931867,41.179878 63.0313892,41.1831809 63.1375479,41.1897866 C63.2437066,41.1963923 63.336594,41.2129064 63.416213,41.2393293 L63.416213,43.4192073 C63.256975,43.379573 63.1209612,43.3531505 63.0081677,43.339939 C62.8953741,43.3267276 62.7858996,43.320122 62.679741,43.320122 C62.1356778,43.320122 61.6977799,43.4192063 61.3660341,43.617378 C61.0342883,43.8155498 60.7755304,44.0533523 60.5897528,44.3307927 C60.4039751,44.6082331 60.2779136,44.892275 60.2115644,45.1829268 C60.1452153,45.4735787 60.1120412,45.7047756 60.1120412,45.8765244 L60.1120412,50.9695122 L57.7234833,50.9695122 L57.7234833,41.4573171 Z M64.0531618,46.1737805 C64.0531618,45.4207279 64.1891755,44.7370458 64.4612071,44.1227134 C64.7332386,43.5083811 65.101471,42.9832339 65.5659151,42.5472561 C66.0303593,42.1112783 66.5810491,41.7743914 67.218001,41.5365854 C67.854953,41.2987793 68.5317043,41.179878 69.2482753,41.179878 C69.9648462,41.179878 70.6415975,41.2987793 71.2785495,41.5365854 C71.9155015,41.7743914 72.4661913,42.1112783 72.9306354,42.5472561 C73.3950795,42.9832339 73.7633119,43.5083811 74.0353434,44.1227134 C74.307375,44.7370458 74.4433888,45.4207279 74.4433888,46.1737805 C74.4433888,46.926833 74.307375,47.613818 74.0353434,48.2347561 C73.7633119,48.8556942 73.3950795,49.387447 72.9306354,49.8300305 C72.4661913,50.272614 71.9155015,50.6194093 71.2785495,50.8704268 C70.6415975,51.1214443 69.9648462,51.2469512 69.2482753,51.2469512 C68.5317043,51.2469512 67.854953,51.1214443 67.218001,50.8704268 C66.5810491,50.6194093 66.0303593,50.272614 65.5659151,49.8300305 C65.101471,49.387447 64.7332386,48.8556942 64.4612071,48.2347561 C64.1891755,47.613818 64.0531618,46.926833 64.0531618,46.1737805 L64.0531618,46.1737805 Z M66.481529,46.1737805 C66.481529,46.543701 66.5379249,46.913616 66.6507185,47.2835366 C66.7635121,47.6534571 66.9326999,47.9837384 67.1582871,48.2743902 C67.3838742,48.5650421 67.6691713,48.8028446 68.014187,48.9878049 C68.3592026,49.1727652 68.7705613,49.2652439 69.2482753,49.2652439 C69.7259892,49.2652439 70.1373479,49.1727652 70.4823635,48.9878049 C70.8273792,48.8028446 71.1126763,48.5650421 71.3382634,48.2743902 C71.5638506,47.9837384 71.7330384,47.6534571 71.845832,47.2835366 C71.9586256,46.913616 72.0150215,46.543701 72.0150215,46.1737805 C72.0150215,45.8038599 71.9586256,45.4372478 71.845832,45.0739329 C71.7330384,44.7106181 71.5638506,44.3836397 71.3382634,44.0929878 C71.1126763,43.8023359 70.8273792,43.5678363 70.4823635,43.3894817 C70.1373479,43.2111272 69.7259892,43.1219512 69.2482753,43.1219512 C68.7705613,43.1219512 68.3592026,43.2111272 68.014187,43.3894817 C67.6691713,43.5678363 67.3838742,43.8023359 67.1582871,44.0929878 C66.9326999,44.3836397 66.7635121,44.7106181 66.6507185,45.0739329 C66.5379249,45.4372478 66.481529,45.8038599 66.481529,46.1737805 L66.481529,46.1737805 Z M88.1576922,41.179878 C88.7813743,41.179878 89.3154771,41.2888709 89.7600165,41.5068598 C90.2045559,41.7248487 90.5694708,42.0121933 90.8547722,42.3689024 C91.1400736,42.7256115 91.3490703,43.1351603 91.4817686,43.597561 C91.614467,44.0599617 91.6808151,44.5355667 91.6808151,45.0243902 L91.6808151,50.9695122 L89.2922572,50.9695122 L89.2922572,45.6981707 C89.2922572,45.4207303 89.2723528,45.1300828 89.2325433,44.8262195 C89.1927338,44.5223562 89.1064811,44.2482228 88.9737828,44.003811 C88.8410845,43.7593992 88.658627,43.5579276 88.426405,43.3993902 C88.1941829,43.2408529 87.8856639,43.1615854 87.5008388,43.1615854 C87.1292834,43.1615854 86.8108122,43.2408529 86.5454156,43.3993902 C86.2800189,43.5579276 86.06107,43.762702 85.8885622,44.0137195 C85.7160543,44.264737 85.5899928,44.5454761 85.5103738,44.8559451 C85.4307548,45.1664142 85.3909459,45.4735757 85.3909459,45.777439 L85.3909459,50.9695122 L83.002388,50.9695122 L83.002388,45.222561 C83.002388,44.6280458 82.8597394,44.1359267 82.574438,43.746189 C82.2891366,43.3564513 81.8412865,43.1615854 81.2308742,43.1615854 C80.8725887,43.1615854 80.5607523,43.2375501 80.2953557,43.3894817 C80.029959,43.5414134 79.8143275,43.7362793 79.6484546,43.9740854 C79.4825817,44.2118914 79.3565201,44.4860249 79.2702662,44.7964939 C79.1840123,45.1069629 79.140886,45.4207301 79.140886,45.7378049 L79.140886,50.9695122 L76.7523281,50.9695122 L76.7523281,41.4573171 L79.0214581,41.4573171 L79.0214581,42.9832317 L79.0612674,42.9832317 C79.1674261,42.7454256 79.3100746,42.5208344 79.4892174,42.3094512 C79.6683601,42.098068 79.8806743,41.9065049 80.1261662,41.7347561 C80.3716581,41.5630073 80.6536378,41.427592 80.9721138,41.3285061 C81.2905897,41.2294202 81.642235,41.179878 82.0270602,41.179878 C82.7701708,41.179878 83.3872088,41.3450187 83.8781926,41.6753049 C84.3691764,42.0055911 84.7473609,42.4415623 85.0127576,42.9832317 C85.3312336,42.401928 85.7558618,41.9560483 86.2866551,41.6455793 C86.8174484,41.3351102 87.4411212,41.179878 88.1576922,41.179878 L88.1576922,41.179878 Z M101.195238,45.2621951 C101.195238,44.9583318 101.152111,44.6676843 101.065857,44.3902439 C100.979603,44.1128035 100.84359,43.8683954 100.657812,43.6570122 C100.472034,43.445629 100.236498,43.2771856 99.951197,43.1516768 C99.6658956,43.0261681 99.3308373,42.9634146 98.9460122,42.9634146 C98.2294412,42.9634146 97.6223555,43.1780974 97.1247367,43.6074695 C96.627118,44.0368416 96.3517731,44.5884113 96.2986938,45.2621951 L101.195238,45.2621951 Z M103.583795,46.3323171 L103.583795,46.6493902 C103.583795,46.7550818 103.577161,46.8607718 103.563891,46.9664634 L96.2986938,46.9664634 C96.3252335,47.3099611 96.4148035,47.6237283 96.5674066,47.9077744 C96.7200096,48.1918205 96.9223715,48.4362287 97.1744984,48.6410061 C97.4266252,48.8457835 97.7119223,49.0076214 98.0303983,49.1265244 C98.3488743,49.2454274 98.6806151,49.304878 99.0256308,49.304878 C99.6227732,49.304878 100.127019,49.1958852 100.538384,48.9778963 C100.949749,48.7599074 101.288125,48.4593515 101.553521,48.0762195 L103.145893,49.3445122 C102.203735,50.6128112 100.836963,51.2469512 99.0455354,51.2469512 C98.3024248,51.2469512 97.6190387,51.1313528 96.9953565,50.9001524 C96.3716744,50.6689521 95.8309368,50.3419737 95.3731276,49.9192073 C94.9153184,49.496441 94.5570383,48.9778994 94.2982765,48.3635671 C94.0395148,47.7492347 93.9101359,47.0523413 93.9101359,46.2728659 C93.9101359,45.5066019 94.0395148,44.8097084 94.2982765,44.1821646 C94.5570383,43.5546208 94.912001,43.0195652 95.3631753,42.5769817 C95.8143496,42.1343982 96.3484523,41.7909057 96.9654995,41.5464939 C97.5825468,41.3020821 98.2493459,41.179878 98.9659168,41.179878 C99.6294084,41.179878 100.243129,41.2888709 100.807097,41.5068598 C101.371065,41.7248487 101.858724,42.0485243 102.270089,42.4778963 C102.681453,42.9072684 103.003242,43.442324 103.235464,44.0830793 C103.467686,44.7238345 103.583795,45.4735729 103.583795,46.3323171 L103.583795,46.3323171 Z" id="for-Chrome" fill="#FBC02D"></path>
                    </g>
                </g>
            </g>
        </g>
    </g>
</svg>